# xmcd
#
# Track frame offsets:
#	150
#	16040
#	33515
#	50615
#	64734
#	82163
#	98113
#	114359
#	132547
#	150894
#	173135
#	189186
#
# Disc length: 2679 seconds
#
# Revision: 0
# Processed by: cddbd v1.5.2PL0 Copyright (c) Steve Scherf et al.
# Submitted via: EZCDAudioConverter 3.0.7.1
#
DISCID=900a750c
DTITLE=Janiva Magness - Stronger for It
DYEAR=2012
DGENRE=Blues
TTITLE0=There it is
TTITLE1=I won't cry
TTITLE2=Make it rain
TTITLE3=Whistlin' in the Dark
TTITLE4=I'm alive
TTITLE5=Ragged Company
TTITLE6=You Got What You Wanted
TTITLE7=I Don't Want To Do Wrong
TTITLE8=Thought I Knew You
TTITLE9=Dirty Water
TTITLE10=Things Left Undone
TTITLE11=Whoop and Holler
EXTD=
EXTT0=
EXTT1=
EXTT2=
EXTT3=
EXTT4=
EXTT5=
EXTT6=
EXTT7=
EXTT8=
EXTT9=
EXTT10=
EXTT11=
PLAYORDER=
